<svg xmlns="http://www.w3.org/2000/svg" viewBox="0 0 256 256" width="256" height="256"><g transform="translate(128,150) scale(1.0)" fill="#B4C0CC"><rect x="-85" y="-48" width="170" height="48" rx="24"/><circle cx="-42" cy="-48" r="34"/><circle cx="12" cy="-64" r="46"/><circle cx="56" cy="-40" r="28"/></g><path transform="translate(70,180) scale(0.9) rotate(15)" fill="#2F7FE0" d="M0,-16 C6,-6 11,1 11,7 A11,11 0 0 1 -11,7 C-11,1 -6,-6 0,-16Z"/><path transform="translate(106,186) scale(0.9) rotate(15)" fill="#2F7FE0" d="M0,-16 C6,-6 11,1 11,7 A11,11 0 0 1 -11,7 C-11,1 -6,-6 0,-16Z"/><path transform="translate(142,180) scale(0.9) rotate(15)" fill="#2F7FE0" d="M0,-16 C6,-6 11,1 11,7 A11,11 0 0 1 -11,7 C-11,1 -6,-6 0,-16Z"/><path transform="translate(178,186) scale(0.9) rotate(15)" fill="#2F7FE0" d="M0,-16 C6,-6 11,1 11,7 A11,11 0 0 1 -11,7 C-11,1 -6,-6 0,-16Z"/><path transform="translate(88,218) scale(0.9) rotate(15)" fill="#2F7FE0" d="M0,-16 C6,-6 11,1 11,7 A11,11 0 0 1 -11,7 C-11,1 -6,-6 0,-16Z"/><path transform="translate(124,224) scale(0.9) rotate(15)" fill="#2F7FE0" d="M0,-16 C6,-6 11,1 11,7 A11,11 0 0 1 -11,7 C-11,1 -6,-6 0,-16Z"/><path transform="translate(160,218) scale(0.9) rotate(15)" fill="#2F7FE0" d="M0,-16 C6,-6 11,1 11,7 A11,11 0 0 1 -11,7 C-11,1 -6,-6 0,-16Z"/><path transform="translate(196,222) scale(0.9) rotate(15)" fill="#2F7FE0" d="M0,-16 C6,-6 11,1 11,7 A11,11 0 0 1 -11,7 C-11,1 -6,-6 0,-16Z"/></svg>